<?xml version="1.0" encoding="UTF-8" standalone="no"?><!DOCTYPE svg PUBLIC "-//W3C//DTD SVG 1.1//EN" "http://www.w3.org/Graphics/SVG/1.1/DTD/svg11.dtd"><svg width="100%" height="100%" viewBox="0 0 4267 4267" version="1.1" xmlns="http://www.w3.org/2000/svg" xmlns:xlink="http://www.w3.org/1999/xlink" xml:space="preserve" xmlns:serif="http://www.serif.com/" style="fill-rule:evenodd;clip-rule:evenodd;stroke-linejoin:round;stroke-miterlimit:2;"><g id="All-AI-Chats--dark-" serif:id="All AI Chats (dark)"><g><path d="M3933.33,1133.33l-400,0l0,1266.67c-0.219,219.351 -180.649,399.781 -400,400l-1191.47,0l-533.334,466.667l1236.8,-0l915.934,654.2c11.27,8.138 24.832,12.503 38.733,12.466c10.61,-0.026 21.068,-2.538 30.533,-7.333c22.179,-11.427 36.16,-34.384 36.134,-59.333l-0,-600l266.666,-0c146.289,-0 266.667,-120.378 266.667,-266.667l0,-1600c0,-146.289 -120.378,-266.667 -266.667,-266.667Z" style="fill:#dedede;fill-rule:nonzero;"/><path d="M3133.33,266.667l-2800,-0c-146.289,-0 -266.666,120.377 -266.666,266.666l-0,1866.67c-0,146.289 120.377,266.667 266.666,266.667l400,-0l0,866.666c0.019,26.1 15.364,49.888 39.134,60.667c8.633,3.973 18.029,6.02 27.533,6c16.129,-0 31.722,-5.854 43.867,-16.467l1047.87,-916.866l1241.6,-0c146.289,-0 266.667,-120.378 266.667,-266.667l0,-1866.67c0,-146.289 -120.378,-266.666 -266.667,-266.666Z" style="fill:#e8e8e8;fill-rule:nonzero;"/></g><g><path d="M1293.94,1478.32c-16.65,0 -30.351,-13.7 -30.351,-30.35c-0.249,-216.353 -178.203,-394.307 -394.556,-394.556c-16.65,-0 -30.35,-13.701 -30.35,-30.351c-0,-16.65 13.7,-30.35 30.35,-30.35c216.353,-0.25 394.307,-178.204 394.556,-394.557c0,-16.65 13.701,-30.35 30.351,-30.35c16.65,-0 30.35,13.7 30.35,30.35c0.25,216.353 178.204,394.307 394.557,394.557c16.65,-0 30.35,13.7 30.35,30.35c0,16.65 -13.7,30.351 -30.35,30.351c-216.353,0.249 -394.307,178.203 -394.557,394.556c0,16.65 -13.7,30.35 -30.35,30.35Z" style="fill:#161616;fill-rule:nonzero;"/><path d="M2143.75,2328.13c-16.65,0 -30.351,-13.701 -30.351,-30.35c-0.249,-216.353 -178.203,-394.308 -394.556,-394.557c-16.65,0 -30.351,-13.7 -30.351,-30.35c0,-16.65 13.701,-30.351 30.351,-30.351c216.353,-0.249 394.307,-178.203 394.556,-394.556c0,-16.65 13.701,-30.351 30.351,-30.351c16.649,0 30.35,13.701 30.35,30.351c0.249,216.353 178.204,394.307 394.556,394.556c16.65,0 30.351,13.701 30.351,30.351c-0,16.65 -13.701,30.35 -30.351,30.35c-216.352,0.249 -394.307,178.204 -394.556,394.557c0,16.649 -13.701,30.35 -30.35,30.35Z" style="fill:#161616;fill-rule:nonzero;"/><path d="M2295.5,1174.81c-16.65,-0 -30.35,-13.701 -30.35,-30.351c-0.15,-133.142 -109.663,-242.654 -242.804,-242.804c-16.65,0 -30.351,-13.701 -30.351,-30.35c0,-16.65 13.701,-30.351 30.351,-30.351c133.141,-0.149 242.654,-109.662 242.804,-242.804c-0,-16.65 13.7,-30.35 30.35,-30.35c16.65,-0 30.351,13.7 30.351,30.35c0.149,133.142 109.662,242.655 242.803,242.804c16.65,0 30.351,13.701 30.351,30.351c-0,16.649 -13.701,30.35 -30.351,30.35c-133.141,0.15 -242.654,109.662 -242.803,242.804c-0,16.65 -13.701,30.351 -30.351,30.351Z" style="fill:#161616;fill-rule:nonzero;"/><path d="M1142.18,2328.13c-16.649,0 -30.35,-13.701 -30.35,-30.35c-0.15,-133.142 -109.662,-242.655 -242.804,-242.804c-16.65,-0 -30.35,-13.701 -30.35,-30.351c-0,-16.65 13.7,-30.35 30.35,-30.35c133.142,-0.15 242.654,-109.662 242.804,-242.804c-0,-16.65 13.701,-30.351 30.35,-30.351c16.65,0 30.351,13.701 30.351,30.351c0.149,133.142 109.662,242.654 242.804,242.804c16.65,-0 30.35,13.7 30.35,30.35c0,16.65 -13.7,30.351 -30.35,30.351c-133.142,0.149 -242.655,109.662 -242.804,242.804c-0,16.649 -13.701,30.35 -30.351,30.35Z" style="fill:#161616;fill-rule:nonzero;"/></g></g></svg>