<?xml version="1.0" encoding="UTF-8" standalone="no"?>
<!DOCTYPE svg PUBLIC "-//W3C//DTD SVG 1.1//EN" "http://www.w3.org/Graphics/SVG/1.1/DTD/svg11.dtd">
<svg width="100%" height="100%" viewBox="0 0 1024 1024" version="1.1" xmlns="http://www.w3.org/2000/svg" xmlns:xlink="http://www.w3.org/1999/xlink" xml:space="preserve" xmlns:serif="http://www.serif.com/" style="fill-rule:evenodd;clip-rule:evenodd;stroke-linejoin:round;stroke-miterlimit:2;">
    <g id="All-AI-Chats--light-" serif:id="All AI Chats (light)">
        <g transform="matrix(16,0,0,16,512,512)">
            <g transform="matrix(1,0,0,1,-32,-32)">
                <g>
                    <path d="M59,17L53,17L53,36C52.997,39.29 50.29,41.997 47,42L29.128,42L21.128,49L39.68,49L53.419,58.813C53.588,58.935 53.791,59.001 54,59C54.159,59 54.316,58.962 54.458,58.89C54.791,58.719 55,58.374 55,58L55,49L59,49C61.194,49 63,47.194 63,45L63,21C63,18.806 61.194,17 59,17Z" style="fill:rgb(50,50,50);fill-rule:nonzero;"/>
                    <path d="M47,4L5,4C2.806,4 1,5.806 1,8L1,36C1,38.194 2.806,40 5,40L11,40L11,53C11,53.391 11.23,53.748 11.587,53.91C11.717,53.97 11.857,54 12,54C12.242,54 12.476,53.912 12.658,53.753L28.376,40L47,40C49.194,40 51,38.194 51,36L51,8C51,5.806 49.194,4 47,4Z" style="fill-rule:nonzero;"/>
                </g>
            </g>
        </g>
        <g transform="matrix(7.28412,0,0,7.28412,412.522,347.512)">
            <g transform="matrix(1,0,0,1,-32,-32)">
                <g>
                    <path d="M18,33C17.451,33 17,32.549 17,32C16.992,24.872 11.128,19.008 4,19C3.451,19 3,18.549 3,18C3,17.451 3.451,17 4,17C11.128,16.992 16.992,11.128 17,4C17,3.451 17.451,3 18,3C18.549,3 19,3.451 19,4C19.008,11.128 24.872,16.992 32,17C32.549,17 33,17.451 33,18C33,18.549 32.549,19 32,19C24.872,19.008 19.008,24.872 19,32C19,32.549 18.549,33 18,33Z" style="fill:white;fill-rule:nonzero;"/>
                    <path d="M46,61C45.451,61 45,60.549 45,60C44.992,52.872 39.128,47.008 32,47C31.451,47 31,46.549 31,46C31,45.451 31.451,45 32,45C39.128,44.992 44.992,39.128 45,32C45,31.451 45.451,31 46,31C46.549,31 47,31.451 47,32C47.008,39.128 52.872,44.992 60,45C60.549,45 61,45.451 61,46C61,46.549 60.549,47 60,47C52.872,47.008 47.008,52.872 47,60C47,60.549 46.549,61 46,61Z" style="fill:white;fill-rule:nonzero;"/>
                    <path d="M51,23C50.451,23 50,22.549 50,22C49.995,17.613 46.387,14.005 42,14C41.451,14 41,13.549 41,13C41,12.451 41.451,12 42,12C46.387,11.995 49.995,8.387 50,4C50,3.451 50.451,3 51,3C51.549,3 52,3.451 52,4C52.005,8.387 55.613,11.995 60,12C60.549,12 61,12.451 61,13C61,13.549 60.549,14 60,14C55.613,14.005 52.005,17.613 52,22C52,22.549 51.549,23 51,23Z" style="fill:white;fill-rule:nonzero;"/>
                    <path d="M13,61C12.451,61 12,60.549 12,60C11.995,55.613 8.387,52.005 4,52C3.451,52 3,51.549 3,51C3,50.451 3.451,50 4,50C8.387,49.995 11.995,46.387 12,42C12,41.451 12.451,41 13,41C13.549,41 14,41.451 14,42C14.005,46.387 17.613,49.995 22,50C22.549,50 23,50.451 23,51C23,51.549 22.549,52 22,52C17.613,52.005 14.005,55.613 14,60C14,60.549 13.549,61 13,61Z" style="fill:white;fill-rule:nonzero;"/>
                </g>
            </g>
        </g>
    </g>
</svg>
